<!--?xml version="1.0" encoding="utf-8"?-->
<!-- Generator: Adobe Illustrator 18.1.1, SVG Export Plug-In . SVG Version: 6.00 Build 0)  -->

<svg version="1.1" id="_x32_" xmlns="http://www.w3.org/2000/svg" xmlns:xlink="http://www.w3.org/1999/xlink" x="0px" y="0px" viewBox="0 0 512 512" style="width: 256px; height: 256px; opacity: 1;" xml:space="preserve">
<style type="text/css">
	.st0{fill:#4B4B4B;}
</style>
<g>
	<!-- https://www.ipentec.com/document/html-svg-set-canvas-background-color -->
	<path d="M0 0 L 512 0 L 512 512 L 0 512" style="fill:#FFFFFF;stroke-width:0" />
	<path class="st0" d="M397.749,224.857v26.108c-0.01,39.105-15.863,74.438-41.566,100.174
		c-25.73,25.702-61.068,41.561-100.18,41.572c-39.111-0.011-74.449-15.87-100.18-41.572
		c-25.708-25.736-41.567-61.069-41.572-100.174v-26.108h-34.6v26.108c0.028,89.441,66.897,163.282,153.286,174.657V512h46.134
		v-86.378c86.388-11.375,153.246-85.216,153.28-174.657v-26.108H397.749z" style="fill: rgb(0, 0, 0);"></path>
	<path class="st0" d="M256.003,340.811c49.592-0.033,89.818-40.254,89.851-89.846V89.857C345.821,40.266,305.6,0.034,256.003,0
		c-49.597,0.034-89.818,40.266-89.852,89.857v161.108C166.185,300.557,206.411,340.778,256.003,340.811z M200.752,89.857
		c0.006-15.261,6.166-28.98,16.208-39.049c10.069-10.047,23.782-16.196,39.044-16.22c15.262,0.023,28.974,6.173,39.044,16.22
		c10.041,10.069,16.202,23.788,16.208,39.049v161.108c-0.006,15.261-6.166,28.98-16.208,39.037
		c-10.064,10.036-23.782,16.196-39.044,16.208c-15.262-0.012-28.98-6.172-39.044-16.208c-10.041-10.057-16.202-23.776-16.208-39.037
		V89.857z" style="fill: rgb(0, 0, 0);"></path>
</g>
</svg>
